<svg xmlns="http://www.w3.org/2000/svg" viewBox="0 0 247.16 46.47"><defs><style>.cls-1{fill:#fff;}</style></defs><title>Fichier 1</title><g id="Calque_2" data-name="Calque 2"><g id="Layer_1" data-name="Layer 1"><path class="cls-1" d="M24,35.65A13.87,13.87,0,1,1,37.89,21.78h0a7.79,7.79,0,0,1-.07,1.28l5.76,3.31a2.57,2.57,0,0,0,3.51-.94h0a7.32,7.32,0,0,0,0-7.3L38.71,3.65A7.29,7.29,0,0,0,32.39,0H15.66A7.29,7.29,0,0,0,9.34,3.65L1,18.14a7.27,7.27,0,0,0,0,7.3L9.34,39.92a7.29,7.29,0,0,0,6.32,3.65H32.39a7.29,7.29,0,0,0,6.32-3.65l.1-.18a2.58,2.58,0,0,0-.94-3.52L32.21,33A13.78,13.78,0,0,1,24,35.65Z"/><path class="cls-1" d="M46.08,31.26l-2-1.16a.58.58,0,0,1-.21-.79L44,29.1a.57.57,0,0,0-.19-.78h0l-2-1.16a.57.57,0,0,0-.78.2l-.13.22a.58.58,0,0,1-.79.2l-2-1.16a.58.58,0,0,1-.21-.79l.13-.21a.57.57,0,0,0-.19-.78h0l-2-1.16a.57.57,0,0,0-.78.2l-.13.22a.58.58,0,0,1-.79.2l-2-1.16a.58.58,0,0,1-.2-.79l.13-.21a.57.57,0,0,0-.19-.78h0l-2-1.16a.57.57,0,0,0-.78.2l-.07.11a.57.57,0,0,1-.78.2l-2-1.16a.58.58,0,0,0-.61.22l-2.3,3.9a.58.58,0,0,0,.2.79l2,1.16a.58.58,0,0,1,.2.79l-.06.1a.58.58,0,0,0,.2.79l2,1.16a.58.58,0,0,0,.79-.2h0a.58.58,0,0,1,.78-.22h0l2,1.17a.57.57,0,0,1,.2.78h0a.58.58,0,0,0,.2.79l2,1.16a.58.58,0,0,0,.79-.2h0a.58.58,0,0,1,.79-.21l2,1.17a.57.57,0,0,1,.2.78h0a.58.58,0,0,0,.2.79l2,1.16a.58.58,0,0,0,.79-.2h0a.58.58,0,0,1,.79-.21l2,1.17a.57.57,0,0,1,.2.78l-3.88,6.29a.58.58,0,0,0,.2.79l4,2.36a.58.58,0,0,0,.79-.2l11-18.7a.57.57,0,0,0-.21-.79l-4-2.36a.58.58,0,0,0-.79.2l-3.84,6.52A.57.57,0,0,1,46.08,31.26Z"/><path class="cls-1" d="M69.21,13.27a.37.37,0,0,1,.42.31.21.21,0,0,1,0,.11V34.07a.37.37,0,0,1-.31.42h-2a.37.37,0,0,1-.42-.31V13.74a.37.37,0,0,1,.31-.42h.11Z"/><path class="cls-1" d="M84.71,23.42v9.81a.71.71,0,0,1-.53.79,23.22,23.22,0,0,1-6.22.61c-3.7,0-5.41-.76-5.41-4.51,0-3.37,1.76-4.32,5-4.32h4.51V23.89c0-1.73-1-2.52-3.64-2.52H74.17c-.33,0-.42-.08-.42-.42V19.8c0-.34.11-.39.39-.45A25.08,25.08,0,0,1,78.38,19C82.75,19,84.71,20.36,84.71,23.42ZM77.58,28c-1.54,0-2.35.5-2.35,2.1,0,1.85.92,2.27,3.22,2.27A16.61,16.61,0,0,0,82,32V28Z"/><path class="cls-1" d="M104.73,34.58l1,3.42c.09.3-.14.44-.42.44h-1.88a.59.59,0,0,1-.59-.44l-1-3.4c-5.88-.28-7.37-2.88-7.37-10.68,0-8.3,1.68-10.79,8.55-10.79s8.56,2.49,8.56,10.79C111.58,31.46,110.14,34.16,104.73,34.58Zm4-10.66c0-6.42-.87-8.3-5.69-8.3s-5.72,1.88-5.72,8.3.87,8.22,5.72,8.22,5.67-1.83,5.67-8.22Z"/><path class="cls-1" d="M127.3,19.16a.37.37,0,0,1,.42.31.21.21,0,0,1,0,.11V33.74c0,.34-.14.37-.42.42a31.55,31.55,0,0,1-5.83.45c-5,0-6.5-.64-6.5-6.59V19.58c0-.28.19-.42.47-.42h1.8a.37.37,0,0,1,.42.31.21.21,0,0,1,0,.11v8.27c0,4.26.84,4.43,3.53,4.43H125V19.58a.37.37,0,0,1,.31-.42.2.2,0,0,1,.11,0Z"/><path class="cls-1" d="M134.58,14.67a1.48,1.48,0,0,1-1.29,1.65h-.36a1.49,1.49,0,0,1-1.66-1.3,2,2,0,0,1,0-.35A1.48,1.48,0,0,1,132.58,13a1.37,1.37,0,0,1,.35,0,1.46,1.46,0,0,1,1.65,1.24A1.27,1.27,0,0,1,134.58,14.67Zm-.73,4.49a.37.37,0,0,1,.42.31.21.21,0,0,1,0,.11V34.07a.37.37,0,0,1-.31.42h-2a.37.37,0,0,1-.42-.31V19.58a.37.37,0,0,1,.31-.42.2.2,0,0,1,.11,0Z"/><path class="cls-1" d="M150.88,25.58v8.49c0,.28-.19.42-.47.42h-1.83a.37.37,0,0,1-.42-.31V25.8c0-4.29-.84-4.43-3.53-4.43h-3.84v12.7a.37.37,0,0,1-.31.42h-1.9a.37.37,0,0,1-.42-.31V19.91c0-.36.13-.39.42-.45a31.68,31.68,0,0,1,5.83-.44C149.4,19,150.88,19.63,150.88,25.58Z"/><path class="cls-1" d="M165,19.27a.41.41,0,0,1,.39.45V21a.37.37,0,0,1-.31.42H160.7c-3.4,0-3.82,1.09-3.82,5.47s.42,5.44,3.82,5.44h4.23a.37.37,0,0,1,.42.31.21.21,0,0,1,0,.11v1.2a.43.43,0,0,1-.37.48h0a31.84,31.84,0,0,1-4.26.25c-5.44,0-6.51-1.54-6.51-7.79S155.26,19,160.7,19A31.84,31.84,0,0,1,165,19.27Z"/><path class="cls-1" d="M179.48,23.42v9.81A.71.71,0,0,1,179,34a23.3,23.3,0,0,1-6.23.61c-3.7,0-5.41-.76-5.41-4.51,0-3.37,1.77-4.32,5-4.32h4.52V23.89c0-1.73-1-2.52-3.65-2.52H169c-.34,0-.42-.08-.42-.42V19.8c0-.34.11-.39.39-.45a25,25,0,0,1,4.23-.33C177.52,19,179.48,20.36,179.48,23.42ZM172.33,28c-1.54,0-2.35.5-2.35,2.1,0,1.85.92,2.27,3.22,2.27a16.61,16.61,0,0,0,3.59-.33V28Z"/><path class="cls-1" d="M186.24,14.67a1.66,1.66,0,0,1-3.31,0,1.66,1.66,0,0,1,3.31,0Zm-.73,4.49a.37.37,0,0,1,.42.31.21.21,0,0,1,0,.11V34.07a.37.37,0,0,1-.31.42h-2a.37.37,0,0,1-.42-.31V19.58a.37.37,0,0,1,.31-.42.2.2,0,0,1,.11,0Z"/><path class="cls-1" d="M192.07,13.27a.37.37,0,0,1,.42.31.21.21,0,0,1,0,.11V34.07a.37.37,0,0,1-.31.42h-2a.37.37,0,0,1-.42-.31V13.74a.37.37,0,0,1,.31-.42h.11Z"/><path class="cls-1" d="M198.63,13.27a.37.37,0,0,1,.42.31.21.21,0,0,1,0,.11V34.07a.37.37,0,0,1-.31.42h-2a.37.37,0,0,1-.42-.31V13.74a.37.37,0,0,1,.31-.42h.11Z"/><path class="cls-1" d="M215.09,26.42v.81c0,.56-.14.78-1,.78h-8.92c.09,3.43.73,4.27,3.73,4.27h4.6a.37.37,0,0,1,.42.31.21.21,0,0,1,0,.11v1.23a.42.42,0,0,1-.39.45h0a34.93,34.93,0,0,1-4.69.25c-5.27,0-6.39-1.54-6.39-7.79S203.57,19,208.84,19C213.85,19,215,20.5,215.09,26.42Zm-10-.59h7.27c-.06-3.56-.65-4.46-3.57-4.46s-3.6.9-3.66,4.46Z"/><path class="cls-1" d="M225.69,19.32c.28.09.42.2.42.48V21a.35.35,0,0,1-.31.4h-2.58c-1.94,0-2.44.31-2.44,1.57V34.07a.37.37,0,0,1-.31.42h-1.89a.37.37,0,0,1-.42-.31V22.3c0-3.17,2.8-3.28,4.42-3.28A16.15,16.15,0,0,1,225.69,19.32Z"/><path class="cls-1" d="M231.43,14.67a1.48,1.48,0,0,1-1.29,1.65h-.36a1.49,1.49,0,0,1-1.66-1.3,2,2,0,0,1,0-.35A1.48,1.48,0,0,1,229.43,13a1.37,1.37,0,0,1,.35,0,1.46,1.46,0,0,1,1.65,1.24A1.28,1.28,0,0,1,231.43,14.67Zm-.73,4.49a.37.37,0,0,1,.42.31.21.21,0,0,1,0,.11V34.07a.37.37,0,0,1-.31.42h-2a.37.37,0,0,1-.42-.31V19.58a.37.37,0,0,1,.31-.42.2.2,0,0,1,.11,0Z"/><path class="cls-1" d="M247.16,26.42v.81c0,.56-.14.78-1,.78h-8.91c.08,3.43.73,4.27,3.73,4.27h4.6a.37.37,0,0,1,.42.31.21.21,0,0,1,0,.11v1.23a.42.42,0,0,1-.39.45h0a34.78,34.78,0,0,1-4.68.25c-5.27,0-6.39-1.54-6.39-7.79S235.66,19,240.93,19C245.93,19,247.11,20.5,247.16,26.42Zm-10-.59h7.26c-.06-3.56-.65-4.46-3.56-4.46s-3.6.9-3.65,4.46Z"/></g></g></svg>